<?xml version="1.0" encoding="utf-8"?>
<!-- Generator: Adobe Illustrator 19.2.1, SVG Export Plug-In . SVG Version: 6.00 Build 0)  -->
<svg version="1.1" xmlns="http://www.w3.org/2000/svg" xmlns:xlink="http://www.w3.org/1999/xlink" x="0px" y="0px"
	 viewBox="0 0 830 230" enable-background="new 0 0 830 230" xml:space="preserve">
<g id="guides" display="none">
	<circle display="inline" fill="none" stroke="#000000" stroke-miterlimit="10" cx="90" cy="90" r="50"/>
	<polygon display="inline" fill="none" stroke="#000000" stroke-miterlimit="10" points="90,140 42.4,105.5 60.6,49.5 119.4,49.5 
		137.6,105.5 	"/>
	<circle display="inline" fill="none" stroke="#000000" stroke-miterlimit="10" cx="90" cy="90" r="60"/>
	<polygon display="inline" fill="none" stroke="#000000" stroke-miterlimit="10" points="90,150 32.9,108.5 54.7,41.5 125.3,41.5 
		147.1,108.5 	"/>
	<polyline display="inline" fill="none" stroke="#000000" stroke-miterlimit="10" points="119.4,49.5 125.3,41.5 90,90 	"/>
	<line display="inline" fill="none" stroke="#000000" stroke-miterlimit="10" x1="137.6" y1="105.5" x2="90" y2="90"/>
	<line display="inline" fill="none" stroke="#000000" stroke-miterlimit="10" x1="147.1" y1="108.5" x2="137.6" y2="105.5"/>
	<line display="inline" fill="none" stroke="#000000" stroke-miterlimit="10" x1="90" y1="150" x2="90" y2="90"/>
	<line display="inline" fill="none" stroke="#000000" stroke-miterlimit="10" x1="42.4" y1="105.5" x2="90" y2="90"/>
	<line display="inline" fill="none" stroke="#000000" stroke-miterlimit="10" x1="32.9" y1="108.5" x2="42.4" y2="105.5"/>
	<line display="inline" fill="none" stroke="#000000" stroke-miterlimit="10" x1="90" y1="90" x2="54.7" y2="41.5"/>
	<line display="inline" fill="none" stroke="#000000" stroke-miterlimit="10" x1="142.3" y1="107" x2="37.7" y2="107"/>
</g>
<g id="log_constructed" display="none">
	<polygon display="inline" points="125.5,102.7 119.4,111 61,111 54.7,102.8 	"/>
	<polygon display="inline" points="119.4,49.5 125.3,41.5 147.1,108.5 90,150 32.9,108.5 54.7,41.5 60.6,49.5 42.4,105.5 90.1,140 
		137.6,105.8 	"/>
</g>
<g id="logotype">
	<path d="M159,90V20h-10v120h50V90H159z M189,130h-30v-30h30V130z"/>
	<path d="M269,140v70h10V90h-50v50H269z M239,100h30v30h-30V100z"/>
	<rect x="209" y="89" width="10" height="50"/>
	<rect x="349" y="89" width="10" height="50"/>
	<polygon points="329,90 329,130 299,130 299,90 289,90 289,140 339,140 339,90 	"/>
	<polygon points="409,70 359,70 359,80 379,80 379,140 389,140 389,80 409,80 	"/>
	<polygon points="469,80 469,70 419,70 419,100 459,100 459,130 419,130 419,140 469,140 469,90 429,90 429,80 	"/>
	<polygon points="112.6,92.5 105.3,103 35.1,103 27.6,93 	"/>
	<polygon points="105.3,28.2 112.4,18.5 138.6,99.1 70,149 1.4,99.1 27.6,18.5 34.6,28.2 12.8,95.5 70.1,137 127.2,95.9 	"/>
</g>
<g id="byline">
	<text transform="matrix(1.0191 0 0 1 298 180)" fill="#7F7F7F" font-family="'Lato-Regular'" font-size="31.9386px">an isomorphic typescript framework</text>
</g>
</svg>
