<?xml version="1.0" encoding="utf-8"?>
<!-- Generator: Adobe Illustrator 19.2.1, SVG Export Plug-In . SVG Version: 6.00 Build 0)  -->
<svg version="1.1" xmlns="http://www.w3.org/2000/svg" xmlns:xlink="http://www.w3.org/1999/xlink" x="0px" y="0px"
	 viewBox="0 0 500 230" enable-background="new 0 0 500 230" xml:space="preserve">
<g id="guides" display="none">
	<circle display="inline" fill="none" stroke="#000000" stroke-miterlimit="10" cx="100" cy="90" r="50"/>
	<polygon display="inline" fill="none" stroke="#000000" stroke-miterlimit="10" points="100,140 52.4,105.5 70.6,49.5 129.4,49.5 
		147.6,105.5 	"/>
	<circle display="inline" fill="none" stroke="#000000" stroke-miterlimit="10" cx="100" cy="90" r="60"/>
	<polygon display="inline" fill="none" stroke="#000000" stroke-miterlimit="10" points="100,150 42.9,108.5 64.7,41.5 135.3,41.5 
		157.1,108.5 	"/>
	<polyline display="inline" fill="none" stroke="#000000" stroke-miterlimit="10" points="129.4,49.5 135.3,41.5 100,90 	"/>
	<line display="inline" fill="none" stroke="#000000" stroke-miterlimit="10" x1="147.6" y1="105.5" x2="100" y2="90"/>
	<line display="inline" fill="none" stroke="#000000" stroke-miterlimit="10" x1="157.1" y1="108.5" x2="147.6" y2="105.5"/>
	<line display="inline" fill="none" stroke="#000000" stroke-miterlimit="10" x1="100" y1="150" x2="100" y2="90"/>
	<line display="inline" fill="none" stroke="#000000" stroke-miterlimit="10" x1="52.4" y1="105.5" x2="100" y2="90"/>
	<line display="inline" fill="none" stroke="#000000" stroke-miterlimit="10" x1="42.9" y1="108.5" x2="52.4" y2="105.5"/>
	<line display="inline" fill="none" stroke="#000000" stroke-miterlimit="10" x1="100" y1="90" x2="64.7" y2="41.5"/>
	<line display="inline" fill="none" stroke="#000000" stroke-miterlimit="10" x1="152.3" y1="107" x2="47.7" y2="107"/>
</g>
<g id="log_constructed" display="none">
	<polygon display="inline" points="135.5,102.7 129.4,111 71,111 64.7,102.8 	"/>
	<polygon display="inline" points="129.4,49.5 135.3,41.5 157.1,108.5 100,150 42.9,108.5 64.7,41.5 70.6,49.5 52.4,105.5 
		100.1,140 147.6,105.8 	"/>
</g>
<g id="logotype">
	<path d="M170,90V20h-10v120h50V90H170z M200,130h-30v-30h30V130z"/>
	<path d="M280,140v70h10V90h-50v50H280z M250,100h30v30h-30V100z"/>
	<rect x="220" y="90" width="10" height="50"/>
	<rect x="360" y="90" width="10" height="50"/>
	<polygon points="340,90 340,130 310,130 310,90 300,90 300,140 350,140 350,90 	"/>
	<polygon points="420,70 370,70 370,80 390,80 390,140 400,140 400,80 420,80 	"/>
	<polygon points="480,80 480,70 430,70 430,100 470,100 470,130 430,130 430,140 480,140 480,90 440,90 440,80 	"/>
	<g>
		<polygon points="122.6,93.5 115.3,104 45.1,104 37.6,94 		"/>
		<polygon points="115.3,29.2 122.4,19.5 148.6,100.1 80,150 11.4,100.1 37.6,19.5 44.6,29.2 22.8,96.5 80.1,138 137.2,96.9 		"/>
	</g>
</g>
<g id="byline" display="none">
	
		<text transform="matrix(1.0191 0 0 1 308 180)" display="inline" fill="#7F7F7F" font-family="'Lato-Regular'" font-size="31.9386px">an isomorphic typescript framework</text>
</g>
</svg>
