<?xml version="1.0" encoding="utf-8"?>
<!-- Generator: Adobe Illustrator 19.2.1, SVG Export Plug-In . SVG Version: 6.00 Build 0)  -->
<svg version="1.1" xmlns="http://www.w3.org/2000/svg" xmlns:xlink="http://www.w3.org/1999/xlink" x="0px" y="0px"
	 viewBox="0 0 500 240" enable-background="new 0 0 500 240" xml:space="preserve">
<g id="guides" display="none">
	<path display="inline" d="M33.8-86h-61.9l-19.1,58.5L2.9,8.7L53-27.4L33.8-86z M-38.7-30.4L-22.8-79h51.4l15.9,48.6L2.9-0.2
		L-38.7-30.4z"/>
	<circle display="inline" fill="none" stroke="#000000" stroke-miterlimit="10" cx="100" cy="100" r="50"/>
	<polygon display="inline" fill="none" stroke="#000000" stroke-miterlimit="10" points="100,150 52.4,115.5 70.6,59.5 129.4,59.5 
		147.6,115.5 	"/>
	<circle display="inline" fill="none" stroke="#000000" stroke-miterlimit="10" cx="100" cy="100" r="60"/>
	<polygon display="inline" fill="none" stroke="#000000" stroke-miterlimit="10" points="100,160 42.9,118.5 64.7,51.5 135.3,51.5 
		157.1,118.5 	"/>
	<polyline display="inline" fill="none" stroke="#000000" stroke-miterlimit="10" points="129.4,59.5 135.3,51.5 100,100 	"/>
	<line display="inline" fill="none" stroke="#000000" stroke-miterlimit="10" x1="147.6" y1="115.5" x2="100" y2="100"/>
	<line display="inline" fill="none" stroke="#000000" stroke-miterlimit="10" x1="157.1" y1="118.5" x2="147.6" y2="115.5"/>
	<line display="inline" fill="none" stroke="#000000" stroke-miterlimit="10" x1="100" y1="160" x2="100" y2="100"/>
	<line display="inline" fill="none" stroke="#000000" stroke-miterlimit="10" x1="52.4" y1="115.5" x2="100" y2="100"/>
	<line display="inline" fill="none" stroke="#000000" stroke-miterlimit="10" x1="42.9" y1="118.5" x2="52.4" y2="115.5"/>
	<line display="inline" fill="none" stroke="#000000" stroke-miterlimit="10" x1="100" y1="100" x2="64.7" y2="51.5"/>
	<line display="inline" fill="none" stroke="#000000" stroke-miterlimit="10" x1="152.3" y1="117" x2="47.7" y2="117"/>
</g>
<g id="log_constructed" display="none">
	<polygon display="inline" points="135.5,112.7 129.4,121 71,121 64.7,112.8 	"/>
	<polygon display="inline" points="129.4,59.5 135.3,51.5 157.1,118.5 100,160 42.9,118.5 64.7,51.5 70.6,59.5 52.4,115.5 
		100.1,150 147.6,115.8 	"/>
</g>
<g id="logotype">
	<path d="M169,100V30h-10v120h50v-50H169z M199,140h-30v-30h30V140z"/>
	<path d="M279,150v70h10V100h-50v50H279z M249,110h30v30h-30V110z"/>
	<rect x="219" y="99" width="10" height="50"/>
	<rect x="359" y="99" width="10" height="50"/>
	<polygon points="339,100 339,140 309,140 309,100 299,100 299,150 349,150 349,100 	"/>
	<polygon points="419,80 369,80 369,90 389,90 389,150 399,150 399,90 419,90 	"/>
	<polygon points="479,90 479,80 429,80 429,110 469,110 469,140 429,140 429,150 479,150 479,100 439,100 439,90 	"/>
	<polygon points="122.6,102.5 115.3,113 45.1,113 37.6,103 	"/>
	<polygon points="115.3,38.2 122.4,28.5 148.6,109.1 80,159 11.4,109.1 37.6,28.5 44.6,38.2 22.8,105.5 80.1,147 137.2,105.9 	"/>
</g>
<g id="byline" display="none">
	
		<text transform="matrix(1.0191 0 0 1 308 190)" display="inline" fill="#7F7F7F" font-family="'Lato-Regular'" font-size="31.9386px">an isomorphic typescript framework</text>
</g>
</svg>
